<svg id="visual" viewBox="0 0 900 600" width="900" height="600" xmlns="http://www.w3.org/2000/svg" xmlns:xlink="http://www.w3.org/1999/xlink" version="1.1"><rect x="0" y="0" width="900" height="600" fill="#001220"></rect><path d="M0 166L21.5 171.3C43 176.7 86 187.3 128.8 181.2C171.7 175 214.3 152 257.2 148.3C300 144.7 343 160.3 385.8 159.5C428.7 158.7 471.3 141.3 514.2 138C557 134.7 600 145.3 642.8 148C685.7 150.7 728.3 145.3 771.2 139.7C814 134 857 128 878.5 125L900 122L900 0L878.5 0C857 0 814 0 771.2 0C728.3 0 685.7 0 642.8 0C600 0 557 0 514.2 0C471.3 0 428.7 0 385.8 0C343 0 300 0 257.2 0C214.3 0 171.7 0 128.8 0C86 0 43 0 21.5 0L0 0Z" fill="#fa7268"></path><path d="M0 146L21.5 144.7C43 143.3 86 140.7 128.8 138.8C171.7 137 214.3 136 257.2 129.2C300 122.3 343 109.7 385.8 107.7C428.7 105.7 471.3 114.3 514.2 122.5C557 130.7 600 138.3 642.8 143.5C685.7 148.7 728.3 151.3 771.2 148.7C814 146 857 138 878.5 134L900 130L900 0L878.5 0C857 0 814 0 771.2 0C728.3 0 685.7 0 642.8 0C600 0 557 0 514.2 0C471.3 0 428.7 0 385.8 0C343 0 300 0 257.2 0C214.3 0 171.7 0 128.8 0C86 0 43 0 21.5 0L0 0Z" fill="#ef5f67"></path><path d="M0 119L21.5 111.8C43 104.7 86 90.3 128.8 91.7C171.7 93 214.3 110 257.2 117C300 124 343 121 385.8 113.7C428.7 106.3 471.3 94.7 514.2 94C557 93.3 600 103.7 642.8 109.2C685.7 114.7 728.3 115.3 771.2 111.2C814 107 857 98 878.5 93.5L900 89L900 0L878.5 0C857 0 814 0 771.2 0C728.3 0 685.7 0 642.8 0C600 0 557 0 514.2 0C471.3 0 428.7 0 385.8 0C343 0 300 0 257.2 0C214.3 0 171.7 0 128.8 0C86 0 43 0 21.5 0L0 0Z" fill="#e34c67"></path><path d="M0 73L21.5 70.8C43 68.7 86 64.3 128.8 65.5C171.7 66.7 214.3 73.3 257.2 71.7C300 70 343 60 385.8 55.5C428.7 51 471.3 52 514.2 51.5C557 51 600 49 642.8 54.2C685.7 59.3 728.3 71.7 771.2 71.5C814 71.3 857 58.7 878.5 52.3L900 46L900 0L878.5 0C857 0 814 0 771.2 0C728.3 0 685.7 0 642.8 0C600 0 557 0 514.2 0C471.3 0 428.7 0 385.8 0C343 0 300 0 257.2 0C214.3 0 171.7 0 128.8 0C86 0 43 0 21.5 0L0 0Z" fill="#d53867"></path><path d="M0 37L21.5 40.5C43 44 86 51 128.8 48.5C171.7 46 214.3 34 257.2 32.5C300 31 343 40 385.8 44.5C428.7 49 471.3 49 514.2 50.7C557 52.3 600 55.7 642.8 55.3C685.7 55 728.3 51 771.2 49.3C814 47.7 857 48.3 878.5 48.7L900 49L900 0L878.5 0C857 0 814 0 771.2 0C728.3 0 685.7 0 642.8 0C600 0 557 0 514.2 0C471.3 0 428.7 0 385.8 0C343 0 300 0 257.2 0C214.3 0 171.7 0 128.8 0C86 0 43 0 21.5 0L0 0Z" fill="#c62368"></path></svg>