<svg id="visual" viewBox="0 0 900 100" width="900" height="100" xmlns="http://www.w3.org/2000/svg" xmlns:xlink="http://www.w3.org/1999/xlink" version="1.1"><path d="M0 62L6.5 61.8C13 61.7 26 61.3 39 62.8C52 64.3 65 67.7 78 68.8C91 70 104 69 117.2 67.2C130.3 65.3 143.7 62.7 156.8 64.2C170 65.7 183 71.3 196 73.7C209 76 222 75 235 72.2C248 69.3 261 64.7 274 64.5C287 64.3 300 68.7 313 71.5C326 74.3 339 75.7 352 74.2C365 72.7 378 68.3 391 67C404 65.7 417 67.3 430.2 69.5C443.3 71.7 456.7 74.3 469.8 75.3C483 76.3 496 75.7 509 73.2C522 70.7 535 66.3 548 62.7C561 59 574 56 587 57.7C600 59.3 613 65.7 626 66.5C639 67.3 652 62.7 665 60.7C678 58.7 691 59.3 704 60.3C717 61.3 730 62.7 743.2 62.7C756.3 62.7 769.7 61.3 782.8 63.5C796 65.7 809 71.3 822 72.2C835 73 848 69 861 68.3C874 67.7 887 70.3 893.5 71.7L900 73L900 0L893.5 0C887 0 874 0 861 0C848 0 835 0 822 0C809 0 796 0 782.8 0C769.7 0 756.3 0 743.2 0C730 0 717 0 704 0C691 0 678 0 665 0C652 0 639 0 626 0C613 0 600 0 587 0C574 0 561 0 548 0C535 0 522 0 509 0C496 0 483 0 469.8 0C456.7 0 443.3 0 430.2 0C417 0 404 0 391 0C378 0 365 0 352 0C339 0 326 0 313 0C300 0 287 0 274 0C261 0 248 0 235 0C222 0 209 0 196 0C183 0 170 0 156.8 0C143.7 0 130.3 0 117.2 0C104 0 91 0 78 0C65 0 52 0 39 0C26 0 13 0 6.5 0L0 0Z" fill="#fa7268"></path><path d="M0 65L6.5 60.8C13 56.7 26 48.3 39 46.7C52 45 65 50 78 54.2C91 58.3 104 61.7 117.2 59.5C130.3 57.3 143.7 49.7 156.8 48.8C170 48 183 54 196 54.5C209 55 222 50 235 47.8C248 45.7 261 46.3 274 46.7C287 47 300 47 313 48.3C326 49.7 339 52.3 352 51.7C365 51 378 47 391 48.3C404 49.7 417 56.3 430.2 56.7C443.3 57 456.7 51 469.8 51.7C483 52.3 496 59.7 509 60C522 60.3 535 53.7 548 53.2C561 52.7 574 58.3 587 61.3C600 64.3 613 64.7 626 62C639 59.3 652 53.7 665 53.5C678 53.3 691 58.7 704 60C717 61.3 730 58.7 743.2 55.3C756.3 52 769.7 48 782.8 47.5C796 47 809 50 822 51.7C835 53.3 848 53.7 861 54.3C874 55 887 56 893.5 56.5L900 57L900 0L893.5 0C887 0 874 0 861 0C848 0 835 0 822 0C809 0 796 0 782.8 0C769.7 0 756.3 0 743.2 0C730 0 717 0 704 0C691 0 678 0 665 0C652 0 639 0 626 0C613 0 600 0 587 0C574 0 561 0 548 0C535 0 522 0 509 0C496 0 483 0 469.8 0C456.7 0 443.3 0 430.2 0C417 0 404 0 391 0C378 0 365 0 352 0C339 0 326 0 313 0C300 0 287 0 274 0C261 0 248 0 235 0C222 0 209 0 196 0C183 0 170 0 156.8 0C143.7 0 130.3 0 117.2 0C104 0 91 0 78 0C65 0 52 0 39 0C26 0 13 0 6.5 0L0 0Z" fill="#ef5f67"></path><path d="M0 40L6.5 39.5C13 39 26 38 39 38.3C52 38.7 65 40.3 78 40.2C91 40 104 38 117.2 37.5C130.3 37 143.7 38 156.8 40.7C170 43.3 183 47.7 196 47C209 46.3 222 40.7 235 38.8C248 37 261 39 274 38C287 37 300 33 313 34.3C326 35.7 339 42.3 352 43C365 43.7 378 38.3 391 36.2C404 34 417 35 430.2 37.5C443.3 40 456.7 44 469.8 46C483 48 496 48 509 46.2C522 44.3 535 40.7 548 37.8C561 35 574 33 587 33.5C600 34 613 37 626 37C639 37 652 34 665 35C678 36 691 41 704 43.3C717 45.7 730 45.3 743.2 45.5C756.3 45.7 769.7 46.3 782.8 45.5C796 44.7 809 42.3 822 41.3C835 40.3 848 40.7 861 38.8C874 37 887 33 893.5 31L900 29L900 0L893.5 0C887 0 874 0 861 0C848 0 835 0 822 0C809 0 796 0 782.8 0C769.7 0 756.3 0 743.2 0C730 0 717 0 704 0C691 0 678 0 665 0C652 0 639 0 626 0C613 0 600 0 587 0C574 0 561 0 548 0C535 0 522 0 509 0C496 0 483 0 469.8 0C456.7 0 443.3 0 430.2 0C417 0 404 0 391 0C378 0 365 0 352 0C339 0 326 0 313 0C300 0 287 0 274 0C261 0 248 0 235 0C222 0 209 0 196 0C183 0 170 0 156.8 0C143.7 0 130.3 0 117.2 0C104 0 91 0 78 0C65 0 52 0 39 0C26 0 13 0 6.5 0L0 0Z" fill="#e34c67"></path><path d="M0 32L6.5 32.3C13 32.7 26 33.3 39 31.3C52 29.3 65 24.7 78 23.3C91 22 104 24 117.2 26C130.3 28 143.7 30 156.8 29.3C170 28.7 183 25.3 196 24C209 22.7 222 23.3 235 25.3C248 27.3 261 30.7 274 32C287 33.3 300 32.7 313 30.3C326 28 339 24 352 25C365 26 378 32 391 32C404 32 417 26 430.2 22.7C443.3 19.3 456.7 18.7 469.8 18.7C483 18.7 496 19.3 509 22.2C522 25 535 30 548 30.7C561 31.3 574 27.7 587 26.8C600 26 613 28 626 28.3C639 28.7 652 27.3 665 26C678 24.7 691 23.3 704 24.8C717 26.3 730 30.7 743.2 31.2C756.3 31.7 769.7 28.3 782.8 26C796 23.7 809 22.3 822 23.7C835 25 848 29 861 29.8C874 30.7 887 28.3 893.5 27.2L900 26L900 0L893.5 0C887 0 874 0 861 0C848 0 835 0 822 0C809 0 796 0 782.8 0C769.7 0 756.3 0 743.2 0C730 0 717 0 704 0C691 0 678 0 665 0C652 0 639 0 626 0C613 0 600 0 587 0C574 0 561 0 548 0C535 0 522 0 509 0C496 0 483 0 469.8 0C456.7 0 443.3 0 430.2 0C417 0 404 0 391 0C378 0 365 0 352 0C339 0 326 0 313 0C300 0 287 0 274 0C261 0 248 0 235 0C222 0 209 0 196 0C183 0 170 0 156.8 0C143.7 0 130.3 0 117.2 0C104 0 91 0 78 0C65 0 52 0 39 0C26 0 13 0 6.5 0L0 0Z" fill="#d53867"></path><path d="M0 18L6.5 18.3C13 18.7 26 19.3 39 19.5C52 19.7 65 19.3 78 18C91 16.7 104 14.3 117.2 14.5C130.3 14.7 143.7 17.3 156.8 17.8C170 18.3 183 16.7 196 16.7C209 16.7 222 18.3 235 19.5C248 20.7 261 21.3 274 20.2C287 19 300 16 313 16C326 16 339 19 352 18.5C365 18 378 14 391 12.7C404 11.3 417 12.7 430.2 14.7C443.3 16.7 456.7 19.3 469.8 20.5C483 21.7 496 21.3 509 19C522 16.7 535 12.3 548 12.8C561 13.3 574 18.7 587 19.7C600 20.7 613 17.3 626 16.7C639 16 652 18 665 18.8C678 19.7 691 19.3 704 19.3C717 19.3 730 19.7 743.2 17.7C756.3 15.7 769.7 11.3 782.8 11.2C796 11 809 15 822 17.3C835 19.7 848 20.3 861 19C874 17.7 887 14.3 893.5 12.7L900 11L900 0L893.5 0C887 0 874 0 861 0C848 0 835 0 822 0C809 0 796 0 782.8 0C769.7 0 756.3 0 743.2 0C730 0 717 0 704 0C691 0 678 0 665 0C652 0 639 0 626 0C613 0 600 0 587 0C574 0 561 0 548 0C535 0 522 0 509 0C496 0 483 0 469.8 0C456.7 0 443.3 0 430.2 0C417 0 404 0 391 0C378 0 365 0 352 0C339 0 326 0 313 0C300 0 287 0 274 0C261 0 248 0 235 0C222 0 209 0 196 0C183 0 170 0 156.8 0C143.7 0 130.3 0 117.2 0C104 0 91 0 78 0C65 0 52 0 39 0C26 0 13 0 6.5 0L0 0Z" fill="#c62368"></path></svg>