<svg id="visual" viewBox="0 0 960 200" width="960" height="200" xmlns="http://www.w3.org/2000/svg" xmlns:xlink="http://www.w3.org/1999/xlink" version="1.1"><path d="M0 155L9.3 154.3C18.7 153.7 37.3 152.3 56.2 148.7C75 145 94 139 112.8 135C131.7 131 150.3 129 169.2 130C188 131 207 135 225.8 136.7C244.7 138.3 263.3 137.7 282.2 142.2C301 146.7 320 156.3 338.8 161C357.7 165.7 376.3 165.3 395.2 166.2C414 167 433 169 451.8 165.2C470.7 161.3 489.3 151.7 508.2 151.3C527 151 546 160 564.8 161.5C583.7 163 602.3 157 621.2 156.5C640 156 659 161 677.8 155.7C696.7 150.3 715.3 134.7 734.2 135C753 135.3 772 151.7 790.8 157.5C809.7 163.3 828.3 158.7 847.2 157.8C866 157 885 160 903.8 156.8C922.7 153.7 941.3 144.3 950.7 139.7L960 135L960 0L950.7 0C941.3 0 922.7 0 903.8 0C885 0 866 0 847.2 0C828.3 0 809.7 0 790.8 0C772 0 753 0 734.2 0C715.3 0 696.7 0 677.8 0C659 0 640 0 621.2 0C602.3 0 583.7 0 564.8 0C546 0 527 0 508.2 0C489.3 0 470.7 0 451.8 0C433 0 414 0 395.2 0C376.3 0 357.7 0 338.8 0C320 0 301 0 282.2 0C263.3 0 244.7 0 225.8 0C207 0 188 0 169.2 0C150.3 0 131.7 0 112.8 0C94 0 75 0 56.2 0C37.3 0 18.7 0 9.3 0L0 0Z" fill="#fa7268"></path><path d="M0 130L9.3 129C18.7 128 37.3 126 56.2 126.8C75 127.7 94 131.3 112.8 127.3C131.7 123.3 150.3 111.7 169.2 112.3C188 113 207 126 225.8 126.5C244.7 127 263.3 115 282.2 113.2C301 111.3 320 119.7 338.8 124.8C357.7 130 376.3 132 395.2 126.3C414 120.7 433 107.3 451.8 102C470.7 96.7 489.3 99.3 508.2 105.5C527 111.7 546 121.3 564.8 127.2C583.7 133 602.3 135 621.2 135.7C640 136.3 659 135.7 677.8 132.7C696.7 129.7 715.3 124.3 734.2 125.2C753 126 772 133 790.8 129.7C809.7 126.3 828.3 112.7 847.2 109.8C866 107 885 115 903.8 114.3C922.7 113.7 941.3 104.3 950.7 99.7L960 95L960 0L950.7 0C941.3 0 922.7 0 903.8 0C885 0 866 0 847.2 0C828.3 0 809.7 0 790.8 0C772 0 753 0 734.2 0C715.3 0 696.7 0 677.8 0C659 0 640 0 621.2 0C602.3 0 583.7 0 564.8 0C546 0 527 0 508.2 0C489.3 0 470.7 0 451.8 0C433 0 414 0 395.2 0C376.3 0 357.7 0 338.8 0C320 0 301 0 282.2 0C263.3 0 244.7 0 225.8 0C207 0 188 0 169.2 0C150.3 0 131.7 0 112.8 0C94 0 75 0 56.2 0C37.3 0 18.7 0 9.3 0L0 0Z" fill="#ef5f67"></path><path d="M0 71L9.3 74.7C18.7 78.3 37.3 85.7 56.2 85.7C75 85.7 94 78.3 112.8 78.3C131.7 78.3 150.3 85.7 169.2 89.3C188 93 207 93 225.8 94.2C244.7 95.3 263.3 97.7 282.2 96.8C301 96 320 92 338.8 89.5C357.7 87 376.3 86 395.2 86.8C414 87.7 433 90.3 451.8 93.5C470.7 96.7 489.3 100.3 508.2 99.2C527 98 546 92 564.8 86.2C583.7 80.3 602.3 74.7 621.2 72.7C640 70.7 659 72.3 677.8 73.2C696.7 74 715.3 74 734.2 76.5C753 79 772 84 790.8 83.3C809.7 82.7 828.3 76.3 847.2 74.5C866 72.7 885 75.3 903.8 79.3C922.7 83.3 941.3 88.7 950.7 91.3L960 94L960 0L950.7 0C941.3 0 922.7 0 903.8 0C885 0 866 0 847.2 0C828.3 0 809.7 0 790.8 0C772 0 753 0 734.2 0C715.3 0 696.7 0 677.8 0C659 0 640 0 621.2 0C602.3 0 583.7 0 564.8 0C546 0 527 0 508.2 0C489.3 0 470.7 0 451.8 0C433 0 414 0 395.2 0C376.3 0 357.7 0 338.8 0C320 0 301 0 282.2 0C263.3 0 244.7 0 225.8 0C207 0 188 0 169.2 0C150.3 0 131.7 0 112.8 0C94 0 75 0 56.2 0C37.3 0 18.7 0 9.3 0L0 0Z" fill="#e34c67"></path><path d="M0 52L9.3 50.8C18.7 49.7 37.3 47.3 56.2 45.7C75 44 94 43 112.8 46.2C131.7 49.3 150.3 56.7 169.2 62.7C188 68.7 207 73.3 225.8 69.7C244.7 66 263.3 54 282.2 52.3C301 50.7 320 59.3 338.8 59.7C357.7 60 376.3 52 395.2 51.7C414 51.3 433 58.7 451.8 62.3C470.7 66 489.3 66 508.2 65C527 64 546 62 564.8 62.5C583.7 63 602.3 66 621.2 67.3C640 68.7 659 68.3 677.8 65.5C696.7 62.7 715.3 57.3 734.2 57.7C753 58 772 64 790.8 65.8C809.7 67.7 828.3 65.3 847.2 61.7C866 58 885 53 903.8 51.3C922.7 49.7 941.3 51.3 950.7 52.2L960 53L960 0L950.7 0C941.3 0 922.7 0 903.8 0C885 0 866 0 847.2 0C828.3 0 809.7 0 790.8 0C772 0 753 0 734.2 0C715.3 0 696.7 0 677.8 0C659 0 640 0 621.2 0C602.3 0 583.7 0 564.8 0C546 0 527 0 508.2 0C489.3 0 470.7 0 451.8 0C433 0 414 0 395.2 0C376.3 0 357.7 0 338.8 0C320 0 301 0 282.2 0C263.3 0 244.7 0 225.8 0C207 0 188 0 169.2 0C150.3 0 131.7 0 112.8 0C94 0 75 0 56.2 0C37.3 0 18.7 0 9.3 0L0 0Z" fill="#d53867"></path><path d="M0 16L9.3 18.5C18.7 21 37.3 26 56.2 30.2C75 34.3 94 37.7 112.8 36.8C131.7 36 150.3 31 169.2 30.5C188 30 207 34 225.8 37C244.7 40 263.3 42 282.2 41.3C301 40.7 320 37.3 338.8 35C357.7 32.7 376.3 31.3 395.2 28.7C414 26 433 22 451.8 20.7C470.7 19.3 489.3 20.7 508.2 23.8C527 27 546 32 564.8 34.3C583.7 36.7 602.3 36.3 621.2 34.3C640 32.3 659 28.7 677.8 27.3C696.7 26 715.3 27 734.2 25.7C753 24.3 772 20.7 790.8 21.3C809.7 22 828.3 27 847.2 30.8C866 34.7 885 37.3 903.8 35.2C922.7 33 941.3 26 950.7 22.5L960 19L960 0L950.7 0C941.3 0 922.7 0 903.8 0C885 0 866 0 847.2 0C828.3 0 809.7 0 790.8 0C772 0 753 0 734.2 0C715.3 0 696.7 0 677.8 0C659 0 640 0 621.2 0C602.3 0 583.7 0 564.8 0C546 0 527 0 508.2 0C489.3 0 470.7 0 451.8 0C433 0 414 0 395.2 0C376.3 0 357.7 0 338.8 0C320 0 301 0 282.2 0C263.3 0 244.7 0 225.8 0C207 0 188 0 169.2 0C150.3 0 131.7 0 112.8 0C94 0 75 0 56.2 0C37.3 0 18.7 0 9.3 0L0 0Z" fill="#c62368"></path></svg>